<svg width="480" height="376" viewBox="0 0 480 376" fill="none" xmlns="http://www.w3.org/2000/svg">
<g clip-path="url(#clip0_93_765)">
<rect width="480" height="353" rx="176.5" fill="#DBE0FC"/>
<path d="M31.3863 307.649H408.053" stroke="#1F1F1F" stroke-width="0.75" stroke-miterlimit="10"/>
<path d="M418.141 307.799H464.195" stroke="#1F1F1F" stroke-width="0.75" stroke-miterlimit="10"/>
<path d="M243.058 354.116C243.058 364.902 199.189 373.641 145.073 373.641C90.9557 373.641 47.0871 364.902 47.0871 354.116C47.0871 352.517 46.1209 342.123 47.9498 340.639C58.4166 332.096 98.9956 334.591 145.073 334.591C191.15 334.591 231.061 332.372 240.965 341.065C242.552 342.456 243.058 352.621 243.058 354.116Z" fill="#1F1F1F"/>
<path d="M145.073 361.694C199.188 361.694 243.058 352.952 243.058 342.169C243.058 331.385 199.188 322.644 145.073 322.644C90.9567 322.644 47.0872 331.385 47.0872 342.169C47.0872 352.952 90.9567 361.694 145.073 361.694Z" fill="#D47172" stroke="#1F1F1F" stroke-width="0.5" stroke-miterlimit="10"/>
<path d="M180.786 355.806C168.905 356.668 162.302 356.933 150.386 356.933" stroke="#1F1F1F" stroke-width="0.5" stroke-miterlimit="10"/>
<path d="M95.9822 328.439C129.131 325.76 164.315 325.53 203.503 330.382C209.461 331.118 215.442 331.843 221.239 333.441C225.38 334.579 235.777 336.534 235.777 342.145C235.777 347.757 221.883 350.781 217.19 351.54C212.923 352.23 208.598 352.483 204.342 353.276" stroke="#1F1F1F" stroke-width="0.5" stroke-miterlimit="10"/>
<path d="M59.8542 337.132C64.1905 334.821 68.9063 332.935 73.8407 332.498" stroke="#1F1F1F" stroke-width="0.5" stroke-miterlimit="10"/>
<path d="M145.073 357.048C116.341 357.094 86.7114 357.048 59.6357 346.159" stroke="#1F1F1F" stroke-width="0.5" stroke-miterlimit="10"/>
<mask id="mask0_93_765" style="mask-type:alpha" maskUnits="userSpaceOnUse" x="0" y="0" width="480" height="353">
<rect x="-6.10352e-05" width="480" height="353" rx="176.5" fill="#DBE0FC"/>
</mask>
<g mask="url(#mask0_93_765)">
<path d="M301.453 239.944C294.563 238.461 288.548 235.839 282.13 233.286C275.712 230.722 269.696 229.503 263.968 225.26C262.116 223.892 260.379 222.362 258.804 220.695C255.963 217.682 254.674 213.485 252.052 210.565C249.671 207.909 245.657 206.77 243.172 203.964C240.274 200.687 238.629 196.456 235.708 193.202C231.498 188.533 225.229 186.463 219.432 184.026C212.336 181.036 205.595 177.241 199.361 172.722C190.735 166.455 165.73 159.234 166.546 148.598C167.098 141.388 188.503 133.293 193.196 127.785C200.707 118.977 208.873 110.755 217.028 102.545C223.067 96.4624 229.577 90.1151 237.928 88.2063C251.546 85.0901 264.486 94.5996 275.482 103.201C307.687 128.394 338.616 155.739 380.955 141.112C414.817 129.418 459.03 105.926 491.397 91.1384C504.762 85.0326 506.798 91.0695 519.565 98.3367C532.148 105.5 537.773 120.84 539.038 135.259C539.981 145.976 538.992 157.118 534.242 166.777C524.649 186.233 502.473 195.467 481.988 202.608C443.02 216.199 401.969 221.799 361.85 231.01C346.46 234.54 324.63 251.684 309.401 243.428C308.297 242.83 307.319 242.002 306.215 241.416C304.743 240.646 303.075 240.324 301.453 239.967V239.944Z" fill="white" stroke="#1F1F1F" stroke-width="0.5" stroke-miterlimit="10"/>
<path d="M139.62 132.362C122.172 136.271 104.206 138.812 86.2855 137.743C85.5953 137.697 84.9167 137.663 84.2266 137.628C72.7706 136.927 59.3363 136.777 51.2734 127.532C49.9392 126.014 48.6164 124.358 48.2254 122.381C47.3742 117.942 49.7551 113.86 53.8613 112.147C56.2078 111.169 58.8187 111.031 61.3606 110.916C67.2612 110.652 72.9431 110.652 78.8322 110.882C95.6596 111.537 111.981 109.675 128.325 105.914C135.157 104.351 142.185 103.983 149.167 103.925C155.78 103.879 161.014 105.73 167.421 107.225C181.395 110.491 195.474 114.791 210.001 113.573" fill="white"/>
<path d="M139.62 132.362C122.172 136.271 104.206 138.812 86.2855 137.743C85.5953 137.697 84.9167 137.663 84.2266 137.628C72.7706 136.927 59.3363 136.777 51.2734 127.532C49.9392 126.014 48.6164 124.358 48.2254 122.381C47.3742 117.942 49.7551 113.86 53.8613 112.147C56.2078 111.169 58.8187 111.031 61.3606 110.916C67.2612 110.652 72.9431 110.652 78.8322 110.882C95.6596 111.537 111.981 109.675 128.325 105.914C135.157 104.351 142.185 103.983 149.167 103.925C155.78 103.879 161.014 105.73 167.42 107.225C181.395 110.491 195.474 114.791 210.001 113.573" stroke="#1F1F1F" stroke-width="0.5" stroke-miterlimit="10"/>
<path d="M218.857 108.858C192.276 117.333 163.28 106.374 137.803 119.173C124.058 126.072 110.325 132.983 96.5798 139.882C89.5635 143.412 83.663 148.552 76.4168 151.898C68.952 155.336 61.1191 157.866 53.5738 161.109C51.1584 162.143 48.4554 163.408 46.9372 165.662C45.4534 167.881 45.4879 171.09 46.9142 173.309C47.4893 174.194 48.2484 174.942 48.996 175.678C50.2267 176.873 51.492 178.104 53.0907 178.725C53.9189 179.047 54.8045 179.185 55.6787 179.311C60.1645 179.967 64.6732 180.358 69.159 179.886C75.2206 179.254 81.0176 177.172 86.7456 175.114C93.0947 172.826 99.6623 171.228 106.034 169.02C112.372 166.823 118.019 163.431 124.265 161.086C128.13 161.086 134.053 157.417 137.722 156.038C141.978 154.439 146.36 152.243 150.869 151.588C158.76 150.449 165.603 148.701 171.699 142.929" fill="white"/>
<path d="M218.857 108.858C192.276 117.333 163.28 106.374 137.803 119.173C124.058 126.072 110.325 132.983 96.5798 139.882C89.5635 143.412 83.663 148.552 76.4168 151.898C68.952 155.336 61.1191 157.866 53.5738 161.109C51.1584 162.143 48.4554 163.408 46.9372 165.662C45.4534 167.881 45.4879 171.09 46.9142 173.309C47.4893 174.194 48.2484 174.942 48.996 175.678C50.2267 176.873 51.492 178.104 53.0907 178.725C53.9189 179.047 54.8045 179.185 55.6787 179.311C60.1645 179.967 64.6732 180.358 69.159 179.886C75.2206 179.254 81.0176 177.172 86.7456 175.114C93.0947 172.826 99.6623 171.228 106.034 169.02C112.372 166.823 118.019 163.431 124.265 161.086C128.13 161.086 134.053 157.417 137.722 156.038C141.978 154.439 146.36 152.243 150.869 151.588C158.76 150.449 165.603 148.701 171.699 142.929" stroke="#1F1F1F" stroke-width="0.5" stroke-miterlimit="10"/>
<path d="M229.6 91.4376C213.682 99.6477 197.406 107.156 180.82 113.906C175.553 116.056 170.193 118.161 165.534 121.438C161.98 123.945 158.702 126.831 155.677 129.959C148.879 136.984 143.358 145.102 138.183 153.37C133.122 161.442 129.579 170.354 124.265 178.357C120.055 184.704 114.903 190.304 110.739 196.617C110.003 197.732 109.267 198.859 108.853 200.124C106.564 207.092 114.155 213.049 120.297 213.727C128.015 214.589 135.572 209.3 140.817 204.149C145.705 199.342 149.639 193.662 153.952 188.326C160.542 180.174 167.053 171.17 174.851 164.202C177.669 161.695 181.016 160.488 183.753 158.119C186.295 155.911 188.055 152.899 191.126 151.289C192.495 150.576 194.013 150.196 195.508 149.84C209.587 146.402 231.28 140.434 232.625 122.806" fill="white"/>
<path d="M229.6 91.4376C213.682 99.6477 197.406 107.156 180.82 113.906C175.553 116.056 170.193 118.161 165.534 121.438C161.98 123.945 158.702 126.831 155.677 129.959C148.879 136.984 143.358 145.102 138.183 153.37C133.122 161.442 129.579 170.354 124.265 178.357C120.055 184.704 114.903 190.304 110.739 196.617C110.003 197.732 109.267 198.859 108.853 200.124C106.564 207.092 114.155 213.049 120.297 213.727C128.015 214.589 135.572 209.3 140.817 204.149C145.705 199.342 149.639 193.662 153.952 188.326C160.542 180.174 167.053 171.17 174.851 164.202C177.669 161.695 181.016 160.488 183.753 158.119C186.295 155.911 188.055 152.899 191.126 151.289C192.495 150.576 194.013 150.196 195.509 149.84C209.587 146.402 231.28 140.434 232.625 122.806" stroke="#1F1F1F" stroke-width="0.5" stroke-miterlimit="10"/>
<path d="M252.949 176.321C246.968 165.892 247.474 152.91 250.315 141.239C251.879 134.799 254.099 128.119 252.454 121.702" stroke="#1F1F1F" stroke-width="0.5" stroke-miterlimit="10"/>
<path d="M228.497 141.423C237.342 134.891 243.116 124.37 243.875 113.4L228.497 141.423Z" fill="white"/>
<path d="M228.497 141.423C237.342 134.891 243.116 124.37 243.875 113.4" stroke="#1F1F1F" stroke-width="0.5" stroke-miterlimit="10"/>
<path d="M189.401 152.232C191.103 148.483 191.77 144.263 191.299 140.169L189.401 152.232Z" fill="white"/>
<path d="M189.401 152.232C191.103 148.483 191.77 144.263 191.299 140.169" stroke="#1F1F1F" stroke-width="0.5" stroke-miterlimit="10"/>
<path d="M176.312 162.224C177.094 160.212 177.474 158.05 177.439 155.888L176.312 162.224Z" fill="white"/>
<path d="M176.312 162.224C177.094 160.212 177.474 158.05 177.439 155.888" stroke="#1F1F1F" stroke-width="0.5" stroke-miterlimit="10"/>
<path d="M48.996 175.689C52.3201 175.586 55.3681 174.861 58.6232 174.206C61.7517 173.573 65.1333 172.47 66.7666 169.733C67.7098 168.157 67.9283 166.237 67.6753 164.42C67.4222 162.604 66.7321 160.879 65.95 159.223C65.5244 158.326 65.0528 157.418 64.2707 156.82" stroke="#1F1F1F" stroke-width="0.5" stroke-miterlimit="10"/>
<path d="M108.519 202.757C108.323 203.505 108.703 204.263 109.082 204.93C110.198 206.851 111.509 208.737 113.361 209.967C115.213 211.197 117.709 211.646 119.687 210.622C120.998 209.932 121.93 208.702 122.77 207.495C126.347 202.355 128.176 195.674 124.909 189.844C123.46 187.257 121.252 185.52 118.905 184.773" stroke="#1F1F1F" stroke-width="0.5" stroke-miterlimit="10"/>
<path d="M48.3865 120.299C51.7221 122.047 55.6097 122.323 59.3824 122.461C62.4419 122.576 65.8465 122.496 68.0894 120.403C69.1936 119.38 69.8722 117.977 70.3783 116.562C71.0454 114.688 71.4595 112.733 71.586 110.744" stroke="#1F1F1F" stroke-width="0.5" stroke-miterlimit="10"/>
<path d="M166.972 291.746C166.017 289.274 168.019 286.687 169.077 285.56C169.468 285.134 169.709 284.605 169.767 284.042C169.939 282.317 170.25 278.821 169.951 278.683C169.56 278.499 162.325 269.898 160.002 254.042C158.242 241.991 161.405 219.821 163.027 209.886C163.521 206.828 164.925 204.022 167.018 201.78C173.827 201.481 178.37 200.262 178.589 198.342C178.761 196.778 176.047 195.03 171.492 193.455C171.262 193.374 171.09 193.19 171.021 192.972C168.812 185.21 169.951 176.873 174.161 169.986L183.983 153.922L156.689 150.99L156.471 150.967L129.199 147.758L135.94 167.766C138.056 174.033 137.446 180.898 134.26 186.705L133.133 188.775C133.018 188.982 132.811 189.12 132.569 189.143C127.946 189.671 125.013 190.752 124.84 192.293C124.622 194.19 128.682 196.352 135.088 198.146C136.653 200.814 137.4 203.907 137.205 207.023C136.572 217.085 134.743 239.369 130.35 250.718C124.564 265.655 115.593 272.44 115.178 272.532C114.902 272.589 114.155 274.072 113.902 275.636C113.764 276.533 113.752 277.764 114.132 278.58C114.925 280.259 116.57 283.858 115.167 285.928C113.2 288.848 97.1434 295.391 98.052 300.681C98.9607 305.97 100.559 318.469 100.559 318.469L127.497 323.747L127.233 325.3L136.929 325.598L146.452 327.461L146.544 325.886L173.977 326.725C173.977 326.725 178.313 314.905 180.383 309.937C182.442 304.97 168.249 295.035 166.972 291.746Z" fill="#95CFB6" stroke="#1F1F1F" stroke-width="0.5" stroke-miterlimit="10"/>
<path d="M174.149 326.196C171.803 333.372 156.459 336.108 136.124 333.82C115.776 331.532 99.8807 324.414 100.605 317.929" fill="#95CFB6"/>
<path d="M174.149 326.196C171.803 333.372 156.459 336.108 136.124 333.82C115.776 331.532 99.8807 324.414 100.605 317.929" stroke="#1F1F1F" stroke-width="0.5" stroke-miterlimit="10"/>
<path d="M180.383 309.937C179.118 316.698 160.22 320.528 137.458 317.963C114.695 315.399 97.1203 307.43 97.9714 299.933" stroke="#1F1F1F" stroke-width="0.5" stroke-miterlimit="10"/>
<path d="M169.594 284.663C168.732 288.55 156.229 291.677 140.851 289.941C125.473 288.205 113.833 281.34 114.005 277.867" stroke="#1F1F1F" stroke-width="0.5" stroke-miterlimit="10"/>
<path d="M170.066 279.075C169.457 284.479 156.747 287.009 141.38 285.284C126.014 283.559 114.316 278.178 114.926 272.773" stroke="#1F1F1F" stroke-width="0.5" stroke-miterlimit="10"/>
<path d="M167.006 201.78C159.404 201.849 148.5 201.906 135.065 198.146" stroke="#1F1F1F" stroke-width="0.5" stroke-miterlimit="10"/>
<path d="M170.906 193.627C161.819 194.03 148.787 194.547 132.891 189.281" stroke="#1F1F1F" stroke-width="0.5" stroke-miterlimit="10"/>
<path d="M176.047 147.943C170.101 145.401 163.475 141.986 163.982 139.491C164.89 135.075 171.814 128.199 171.814 128.199L160.634 108.352L145.67 125.267C145.67 125.267 150.892 133.512 150.8 138.019C150.743 140.756 142.415 142.688 135.756 143.826C131.143 144.263 128.245 145.206 128.084 146.586C127.75 149.552 140.218 153.381 155.93 155.152C171.642 156.923 184.651 155.946 184.973 152.991C185.145 151.415 181.672 149.587 176.036 147.966L176.047 147.943Z" fill="#95CFB6" stroke="#1F1F1F" stroke-width="0.5" stroke-miterlimit="10"/>
<path d="M259.505 162.316C259.505 170.63 259.195 180.335 252.098 186.015C248.901 188.579 245.024 190.12 241.217 191.615C223.401 198.629 205.791 206.425 187.549 211.968C177.807 214.934 168.283 219.063 160.002 225.03C153.135 229.975 146.165 236.322 148.523 245.51C154.757 269.853 184.524 247.177 198.027 243.348C207.148 240.761 216.511 238.334 225.897 236.817C242.425 234.137 259.563 234.218 275.712 238.656C280.186 239.887 284.568 241.451 289.043 242.715C300.222 245.889 311.701 248.752 323.422 247.372C337.443 245.717 351.268 238.737 361.229 228.974C364.473 225.801 367.854 222.696 371.88 220.534" fill="white"/>
<path d="M259.505 162.316C259.505 170.63 259.195 180.335 252.098 186.015C248.901 188.579 245.024 190.12 241.217 191.615C223.401 198.629 205.791 206.425 187.549 211.968C177.807 214.934 168.283 219.063 160.002 225.03C153.135 229.975 146.165 236.322 148.523 245.51C154.757 269.853 184.524 247.177 198.027 243.348C207.148 240.761 216.511 238.334 225.897 236.817C242.425 234.137 259.563 234.218 275.712 238.656C280.186 239.887 284.568 241.451 289.043 242.715C300.222 245.889 311.701 248.752 323.422 247.372C337.443 245.717 351.268 238.737 361.229 228.974C364.473 225.801 367.854 222.696 371.88 220.534" stroke="#1F1F1F" stroke-width="0.5" stroke-miterlimit="10"/>
<path d="M177.749 252.397C177.864 248.074 177.117 243.727 175.575 239.68C174.494 236.84 172.78 233.942 169.939 232.896C168.812 232.482 167.593 232.401 166.397 232.482C162.751 232.746 159.369 234.54 156.471 236.759C154.86 238.001 153.331 239.415 152.341 241.186C151.559 242.589 151.881 243.831 152.169 245.418C152.629 247.97 153.089 250.535 153.825 253.03" stroke="#1F1F1F" stroke-width="0.5" stroke-miterlimit="10"/>
<path d="M176.909 235.299C178.416 238.783 179.52 242.439 180.222 246.176L176.909 235.299Z" fill="white"/>
<path d="M176.909 235.299C178.416 238.783 179.52 242.439 180.222 246.176" stroke="#1F1F1F" stroke-width="0.5" stroke-miterlimit="10"/>
<path d="M121.654 184.348C123.115 185.405 124.449 186.67 125.576 188.085L121.654 184.348Z" fill="white"/>
<path d="M121.654 184.348C123.115 185.405 124.449 186.67 125.576 188.085" stroke="#1F1F1F" stroke-width="0.5" stroke-miterlimit="10"/>
<path d="M69.1821 169.48C69.7457 166.95 69.6652 164.282 68.9406 161.799L69.1821 169.48Z" fill="white"/>
<path d="M69.1821 169.48C69.7457 166.95 69.6652 164.282 68.9406 161.799" stroke="#1F1F1F" stroke-width="0.5" stroke-miterlimit="10"/>
<path d="M72.8628 114.044C72.8628 115.953 72.2647 117.85 71.172 119.414L72.8628 114.044Z" fill="white"/>
<path d="M72.8628 114.044C72.8628 115.953 72.2647 117.85 71.172 119.414" stroke="#1F1F1F" stroke-width="0.5" stroke-miterlimit="10"/>
<path d="M351.935 232.712C354.006 231.297 355.961 229.71 357.767 227.963" stroke="#1F1F1F" stroke-width="0.5" stroke-miterlimit="10"/>
<path d="M171.228 228.4C172.366 228.538 173.459 229.078 174.253 229.906" stroke="#1F1F1F" stroke-width="0.5" stroke-miterlimit="10"/>
<path d="M248.59 196.594C253.145 194.041 256.952 190.201 259.482 185.635" stroke="#1F1F1F" stroke-width="0.5" stroke-miterlimit="10"/>
<path d="M378.136 217.568C384.129 214.865 390.122 212.152 396.114 209.449" stroke="#1F1F1F" stroke-width="0.5" stroke-miterlimit="10"/>
<path d="M145.141 105.581C145.003 107.467 143.853 112.158 143.381 113.998" stroke="#1F1F1F" stroke-width="0.5" stroke-miterlimit="10"/>
<path d="M147.004 106.006C146.475 107.892 145.958 109.778 145.429 111.664" stroke="#1F1F1F" stroke-width="0.5" stroke-miterlimit="10"/>
<path d="M101.123 141.032C102.319 144.24 103.642 147.402 105.091 150.507" stroke="#1F1F1F" stroke-width="0.5" stroke-miterlimit="10"/>
<path d="M100.077 144.39C100.652 145.999 101.411 147.54 102.308 148.978" stroke="#1F1F1F" stroke-width="0.5" stroke-miterlimit="10"/>
<path d="M103.803 140.825C104.194 141.883 104.896 142.802 105.402 143.803C106 144.987 106.356 146.287 106.425 147.609" stroke="#1F1F1F" stroke-width="0.5" stroke-miterlimit="10"/>
<path d="M150.352 139.066C154.596 141.722 159.887 142.492 164.81 141.492C164.177 140.79 163.866 140.112 163.993 139.491C164.902 135.075 171.826 128.199 171.826 128.199L160.646 108.352L145.682 125.267C145.682 125.267 150.904 133.512 150.812 138.019C150.812 138.387 150.639 138.732 150.352 139.077V139.066Z" fill="#1F1F1F"/>
<path d="M179.601 149.104C178.244 150.392 176.68 151.473 174.816 152.243C169.686 154.37 163.74 153.91 158.334 153.381C152.893 152.841 147.234 152.094 141.978 150.53C138.769 149.575 135.341 148.529 132.604 146.551C131.879 146.022 131.189 145.436 130.637 144.746C129.096 145.229 128.187 145.838 128.095 146.586C127.762 149.552 140.23 153.381 155.941 155.152C171.653 156.923 184.65 155.946 184.984 152.99C185.122 151.783 183.098 150.426 179.601 149.127V149.104Z" fill="#1F1F1F"/>
<path d="M173.7 165.145C171.296 169.204 169.307 173.527 167.777 178" stroke="#1F1F1F" stroke-width="0.5" stroke-miterlimit="10"/>
<path d="M167.651 180.369C167.386 182.623 167.248 184.9 167.237 187.165" stroke="#1F1F1F" stroke-width="0.5" stroke-miterlimit="10"/>
<path d="M171.331 195.984C172.09 196.18 172.895 196.122 173.62 196.398C174.345 196.674 174.989 197.479 174.69 198.192" stroke="#1F1F1F" stroke-width="0.5" stroke-miterlimit="10"/>
<path d="M161.646 205.045C160.335 208.564 160.128 212.393 158.989 215.981" stroke="#1F1F1F" stroke-width="0.5" stroke-miterlimit="10"/>
<path d="M158.702 218.683C158.495 219.856 158.392 221.052 158.38 222.248" stroke="#1F1F1F" stroke-width="0.5" stroke-miterlimit="10"/>
<path d="M134.364 246.832C133.087 250.672 131.811 254.536 130.028 258.17C128.245 261.803 125.922 265.241 122.839 267.863" stroke="#1F1F1F" stroke-width="0.5" stroke-miterlimit="10"/>
<path d="M121.137 270.266C120.4 271.244 119.572 272.152 118.664 272.969" stroke="#1F1F1F" stroke-width="0.5" stroke-miterlimit="10"/>
<path d="M100.904 318.251C104.067 322.195 108.369 325.196 113.154 326.817" stroke="#1F1F1F" stroke-width="0.5" stroke-miterlimit="10"/>
<path d="M115.305 327.266C116.294 327.668 117.307 328.025 118.33 328.324" stroke="#1F1F1F" stroke-width="0.5" stroke-miterlimit="10"/>
<path d="M112.372 308.523C118.802 310.869 125.381 312.823 132.04 314.376" stroke="#1F1F1F" stroke-width="0.5" stroke-miterlimit="10"/>
<path d="M135.387 314.813C137.837 315.181 140.276 315.537 142.726 315.905" stroke="#1F1F1F" stroke-width="0.5" stroke-miterlimit="10"/>
<path d="M176.461 305.269C176.841 305.901 177.312 306.465 177.669 307.108C178.025 307.752 178.267 308.5 178.129 309.213C177.968 310.041 177.324 310.685 176.657 311.191C175.886 311.788 175 312.294 174.023 312.34" stroke="#1F1F1F" stroke-width="0.5" stroke-miterlimit="10"/>
<path d="M128.291 191.799C127.865 191.81 127.635 192.374 127.785 192.765C127.934 193.156 128.325 193.42 128.693 193.639C131.155 195.064 133.904 195.869 136.63 196.651" stroke="#1F1F1F" stroke-width="0.5" stroke-miterlimit="10"/>
<path d="M138.895 197.479C140.506 197.882 142.127 198.227 143.749 198.526" stroke="#1F1F1F" stroke-width="0.5" stroke-miterlimit="10"/>
<path d="M137.596 146.896C140.598 148.034 143.692 148.954 146.832 149.633" stroke="#1F1F1F" stroke-width="0.5" stroke-miterlimit="10"/>
<path d="M148.776 150.196C150.501 150.484 152.226 150.76 153.952 151.047" stroke="#1F1F1F" stroke-width="0.5" stroke-miterlimit="10"/>
<path d="M478.097 191.209C480.214 168.748 478.053 143.874 471.429 125.137L478.097 191.209Z" fill="white"/>
<path d="M478.097 191.209C480.214 168.748 478.053 143.874 471.429 125.137" stroke="#1F1F1F" stroke-width="0.5" stroke-miterlimit="10"/>
<path d="M469.621 117.902C468.937 115.131 467.894 112.425 466.537 109.871L469.621 117.902Z" fill="white"/>
<path d="M469.621 117.902C468.937 115.131 467.894 112.425 466.537 109.871" stroke="#1F1F1F" stroke-width="0.5" stroke-miterlimit="10"/>
</g>
</g>
<defs>
<clipPath id="clip0_93_765">
<rect width="480" height="376" fill="white"/>
</clipPath>
</defs>
</svg>
