<svg width="168" height="168" viewBox="0 0 168 168" fill="none" xmlns="http://www.w3.org/2000/svg">
<rect width="168" height="168" rx="16" fill="white"/>
<path d="M25.84 51.48C22.768 51.48 20.16 50.824 18.016 49.512C15.904 48.168 14.288 46.264 13.168 43.8C12.048 41.304 11.488 38.344 11.488 34.92C11.488 31.56 12.112 28.648 13.36 26.184C14.608 23.688 16.368 21.768 18.64 20.424C20.944 19.048 23.68 18.36 26.848 18.36C29.92 18.36 32.512 18.856 34.624 19.848C36.768 20.808 38.4 22.2 39.52 24.024C40.64 25.848 41.2 28.024 41.2 30.552V30.792H34.672V30.552C34.672 28.28 34.064 26.68 32.848 25.752C31.632 24.824 29.616 24.36 26.8 24.36C24.784 24.36 23.12 24.68 21.808 25.32C20.528 25.96 19.584 27.048 18.976 28.584C18.368 30.12 18.064 32.232 18.064 34.92C18.064 37.608 18.384 39.72 19.024 41.256C19.664 42.792 20.656 43.88 22 44.52C23.376 45.16 25.152 45.48 27.328 45.48C29.152 45.48 30.64 45.336 31.792 45.048C32.976 44.728 33.856 44.152 34.432 43.32C35.04 42.456 35.344 41.272 35.344 39.768V37.896H41.296V38.664L36.112 46.008H35.344C35.024 46.872 34.464 47.736 33.664 48.6C32.864 49.432 31.824 50.12 30.544 50.664C29.264 51.208 27.696 51.48 25.84 51.48ZM41.296 51H35.584V42.6L35.344 42.024V35.064H41.296V51ZM41.296 39.48H25.936V34.152H41.296V39.48ZM67.3158 51H61.6038V46.536L61.4598 45.192V36.024C61.4598 34.392 61.0278 33.32 60.1638 32.808C59.3318 32.264 58.1158 31.992 56.5157 31.992C54.8838 31.992 53.6998 32.28 52.9638 32.856C52.2278 33.432 51.8598 34.44 51.8598 35.88V36.408H45.9558V35.928C45.9558 34.072 46.4038 32.44 47.2998 31.032C48.2278 29.624 49.4918 28.536 51.0918 27.768C52.7238 26.968 54.6278 26.568 56.8038 26.568C59.1078 26.568 61.0278 26.984 62.5638 27.816C64.1318 28.648 65.3158 29.816 66.1158 31.32C66.9158 32.824 67.3158 34.616 67.3158 36.696V51ZM52.9158 51.48C50.7398 51.48 48.9318 50.936 47.4918 49.848C46.0518 48.728 45.3318 47.096 45.3318 44.952C45.3318 43.704 45.6198 42.616 46.1958 41.688C46.8038 40.76 47.6838 40.008 48.8358 39.432C50.0198 38.856 51.4438 38.456 53.1078 38.232L61.9398 36.936V41.16L54.1158 42.312C53.1238 42.44 52.4038 42.68 51.9558 43.032C51.5078 43.352 51.2838 43.832 51.2838 44.472C51.2838 45.272 51.5718 45.848 52.1478 46.2C52.7558 46.52 53.6998 46.68 54.9798 46.68C55.9718 46.68 56.9638 46.536 57.9557 46.248C58.9478 45.96 59.7798 45.448 60.4518 44.712C61.1238 43.944 61.4598 42.84 61.4598 41.4L62.1318 47.544L61.3638 47.496C60.9158 48.168 60.3078 48.808 59.5398 49.416C58.8038 50.024 57.8758 50.52 56.7558 50.904C55.6678 51.288 54.3878 51.48 52.9158 51.48ZM111.193 51H105.001V37.128C105.001 35.24 104.633 33.896 103.897 33.096C103.193 32.296 101.881 31.896 99.961 31.896C98.169 31.896 96.841 32.28 95.977 33.048C95.145 33.816 94.729 35.176 94.729 37.128L93.817 37.368L93.193 31.416H94.105C94.521 30.584 95.065 29.8 95.737 29.064C96.441 28.328 97.337 27.736 98.425 27.288C99.513 26.808 100.825 26.568 102.361 26.568C104.441 26.568 106.121 26.984 107.401 27.816C108.681 28.616 109.625 29.72 110.233 31.128C110.873 32.536 111.193 34.12 111.193 35.88V51ZM78.265 51H72.073V27.048H77.785V34.008L78.265 34.248V51ZM94.729 51H88.537V37.128C88.537 35.24 88.169 33.896 87.433 33.096C86.729 32.296 85.417 31.896 83.497 31.896C81.705 31.896 80.377 32.28 79.513 33.048C78.681 33.784 78.265 35.128 78.265 37.08L77.353 37.368L76.729 31.416H78.025C78.441 30.52 78.985 29.704 79.657 28.968C80.361 28.232 81.241 27.656 82.297 27.24C83.353 26.792 84.617 26.568 86.089 26.568C88.105 26.568 89.737 26.984 90.985 27.816C92.265 28.616 93.209 29.72 93.817 31.128C94.425 32.536 94.729 34.12 94.729 35.88V51ZM126.703 51.48C123.983 51.48 121.743 50.968 119.983 49.944C118.223 48.888 116.927 47.432 116.095 45.576C115.263 43.72 114.847 41.528 114.847 39C114.847 36.504 115.327 34.328 116.287 32.472C117.247 30.584 118.607 29.128 120.367 28.104C122.159 27.08 124.271 26.568 126.703 26.568C128.975 26.568 130.943 27 132.607 27.864C134.303 28.728 135.599 29.928 136.495 31.464C137.423 33 137.887 34.84 137.887 36.984C137.887 37.624 137.855 38.264 137.791 38.904C137.759 39.512 137.711 40.024 137.647 40.44H117.679V36.456H132.415L131.935 36.888C132.063 35.704 131.935 34.744 131.551 34.008C131.167 33.24 130.543 32.68 129.679 32.328C128.847 31.944 127.791 31.752 126.511 31.752C124.271 31.752 122.719 32.296 121.855 33.384C121.023 34.44 120.607 35.944 120.607 37.896V39.576C120.607 41.016 120.783 42.216 121.135 43.176C121.519 44.136 122.159 44.856 123.055 45.336C123.951 45.784 125.183 46.008 126.751 46.008C128.447 46.008 129.679 45.784 130.447 45.336C131.215 44.888 131.599 44.216 131.599 43.32V42.936H137.695V43.416C137.695 45.112 137.231 46.568 136.303 47.784C135.407 48.968 134.143 49.88 132.511 50.52C130.879 51.16 128.943 51.48 126.703 51.48ZM26.848 89.016H14.752V83.448H27.328C29.184 83.448 30.48 83.064 31.216 82.296C31.952 81.496 32.32 80.04 32.32 77.928C32.32 75.816 31.952 74.376 31.216 73.608C30.48 72.808 29.184 72.408 27.328 72.408H14.752V66.84H26.848C29.088 66.84 31.088 67.288 32.848 68.184C34.608 69.048 35.984 70.296 36.976 71.928C38 73.56 38.512 75.56 38.512 77.928C38.512 80.264 38 82.264 36.976 83.928C35.984 85.56 34.608 86.824 32.848 87.72C31.088 88.584 29.088 89.016 26.848 89.016ZM18.688 99H12.496V66.84H18.688V99ZM52.0315 99.48C49.3115 99.48 47.0715 98.968 45.3115 97.944C43.5515 96.888 42.2555 95.432 41.4235 93.576C40.5915 91.72 40.1755 89.528 40.1755 87C40.1755 84.504 40.6555 82.328 41.6155 80.472C42.5755 78.584 43.9355 77.128 45.6955 76.104C47.4875 75.08 49.5995 74.568 52.0315 74.568C54.3035 74.568 56.2715 75 57.9355 75.864C59.6315 76.728 60.9275 77.928 61.8235 79.464C62.7515 81 63.2155 82.84 63.2155 84.984C63.2155 85.624 63.1835 86.264 63.1195 86.904C63.0875 87.512 63.0395 88.024 62.9755 88.44H43.0075V84.456H57.7435L57.2635 84.888C57.3915 83.704 57.2635 82.744 56.8795 82.008C56.4955 81.24 55.8715 80.68 55.0075 80.328C54.1755 79.944 53.1195 79.752 51.8395 79.752C49.5995 79.752 48.0475 80.296 47.1835 81.384C46.3515 82.44 45.9355 83.944 45.9355 85.896V87.576C45.9355 89.016 46.1115 90.216 46.4635 91.176C46.8475 92.136 47.4875 92.856 48.3835 93.336C49.2795 93.784 50.5115 94.008 52.0795 94.008C53.7755 94.008 55.0075 93.784 55.7755 93.336C56.5435 92.888 56.9275 92.216 56.9275 91.32V90.936H63.0235V91.416C63.0235 93.112 62.5595 94.568 61.6315 95.784C60.7355 96.968 59.4715 97.88 57.8395 98.52C56.2075 99.16 54.2715 99.48 52.0315 99.48ZM78.5695 99.48C76.0735 99.48 73.9135 98.968 72.0895 97.944C70.2655 96.92 68.8575 95.48 67.8655 93.624C66.9055 91.736 66.4255 89.528 66.4255 87C66.4255 84.504 66.9055 82.328 67.8655 80.472C68.8575 78.584 70.2655 77.128 72.0895 76.104C73.9135 75.08 76.0735 74.568 78.5695 74.568C81.0655 74.568 83.1935 75.08 84.9535 76.104C86.7455 77.128 88.1215 78.584 89.0815 80.472C90.0415 82.328 90.5215 84.504 90.5215 87C90.5215 89.528 90.0415 91.736 89.0815 93.624C88.1215 95.48 86.7455 96.92 84.9535 97.944C83.1935 98.968 81.0655 99.48 78.5695 99.48ZM78.5695 94.008C80.7775 94.008 82.3295 93.48 83.2255 92.424C84.1215 91.336 84.5695 89.528 84.5695 87C84.5695 84.504 84.1215 82.728 83.2255 81.672C82.3295 80.584 80.7775 80.04 78.5695 80.04C76.3295 80.04 74.7615 80.584 73.8655 81.672C72.9695 82.728 72.5215 84.504 72.5215 87C72.5215 89.528 72.9695 91.336 73.8655 92.424C74.7615 93.48 76.3295 94.008 78.5695 94.008ZM107.734 99.48C105.718 99.48 104.086 99.112 102.838 98.376C101.59 97.608 100.694 96.712 100.15 95.688H98.758L99.046 89.208H99.958C99.958 90.36 100.182 91.304 100.63 92.04C101.078 92.776 101.75 93.336 102.646 93.72C103.542 94.072 104.614 94.248 105.862 94.248C106.95 94.248 107.862 94.104 108.598 93.816C109.366 93.528 109.974 93.112 110.422 92.568C110.902 91.992 111.238 91.24 111.43 90.312C111.654 89.384 111.766 88.296 111.766 87.048C111.766 85.768 111.654 84.68 111.43 83.784C111.238 82.856 110.902 82.104 110.422 81.528C109.974 80.952 109.366 80.52 108.598 80.232C107.862 79.944 106.95 79.8 105.862 79.8C104.614 79.8 103.542 79.992 102.646 80.376C101.75 80.728 101.078 81.272 100.63 82.008C100.182 82.712 99.958 83.656 99.958 84.84H99.046L98.758 78.792H99.718C100.326 77.416 101.302 76.376 102.646 75.672C103.99 74.936 105.606 74.568 107.494 74.568C110.886 74.568 113.462 75.704 115.222 77.976C117.014 80.216 117.91 83.24 117.91 87.048C117.91 90.792 117.014 93.8 115.222 96.072C113.462 98.344 110.966 99.48 107.734 99.48ZM99.958 107.208H93.814V75.048H99.478V80.424L99.958 81.048V107.208ZM128.234 99H122.042V66.84H128.234V99ZM143.813 99.48C141.093 99.48 138.853 98.968 137.093 97.944C135.333 96.888 134.037 95.432 133.205 93.576C132.373 91.72 131.957 89.528 131.957 87C131.957 84.504 132.437 82.328 133.397 80.472C134.357 78.584 135.717 77.128 137.477 76.104C139.269 75.08 141.381 74.568 143.813 74.568C146.085 74.568 148.053 75 149.717 75.864C151.413 76.728 152.709 77.928 153.605 79.464C154.533 81 154.997 82.84 154.997 84.984C154.997 85.624 154.965 86.264 154.901 86.904C154.869 87.512 154.821 88.024 154.757 88.44H134.789V84.456H149.525L149.045 84.888C149.173 83.704 149.045 82.744 148.661 82.008C148.277 81.24 147.653 80.68 146.789 80.328C145.957 79.944 144.901 79.752 143.621 79.752C141.381 79.752 139.829 80.296 138.965 81.384C138.133 82.44 137.717 83.944 137.717 85.896V87.576C137.717 89.016 137.893 90.216 138.245 91.176C138.629 92.136 139.269 92.856 140.165 93.336C141.061 93.784 142.293 94.008 143.861 94.008C145.557 94.008 146.789 93.784 147.557 93.336C148.325 92.888 148.709 92.216 148.709 91.32V90.936H154.805V91.416C154.805 93.112 154.341 94.568 153.413 95.784C152.517 96.968 151.253 97.88 149.621 98.52C147.989 99.16 146.053 99.48 143.813 99.48ZM26.848 137.016H14.752V131.448H27.328C29.184 131.448 30.48 131.064 31.216 130.296C31.952 129.496 32.32 128.04 32.32 125.928C32.32 123.816 31.952 122.376 31.216 121.608C30.48 120.808 29.184 120.408 27.328 120.408H14.752V114.84H26.848C29.088 114.84 31.088 115.288 32.848 116.184C34.608 117.048 35.984 118.296 36.976 119.928C38 121.56 38.512 123.56 38.512 125.928C38.512 128.264 38 130.264 36.976 131.928C35.984 133.56 34.608 134.824 32.848 135.72C31.088 136.584 29.088 137.016 26.848 137.016ZM18.688 147H12.496V114.84H18.688V147ZM48.0775 147H41.8855V114.84H48.0775V147ZM73.7376 147H68.0256V142.536L67.8816 141.192V132.024C67.8816 130.392 67.4496 129.32 66.5856 128.808C65.7536 128.264 64.5376 127.992 62.9376 127.992C61.3056 127.992 60.1216 128.28 59.3856 128.856C58.6496 129.432 58.2816 130.44 58.2816 131.88V132.408H52.3776V131.928C52.3776 130.072 52.8256 128.44 53.7216 127.032C54.6496 125.624 55.9136 124.536 57.5136 123.768C59.1456 122.968 61.0496 122.568 63.2256 122.568C65.5296 122.568 67.4496 122.984 68.9856 123.816C70.5536 124.648 71.7376 125.816 72.5376 127.32C73.3376 128.824 73.7376 130.616 73.7376 132.696V147ZM59.3376 147.48C57.1616 147.48 55.3536 146.936 53.9136 145.848C52.4736 144.728 51.7536 143.096 51.7536 140.952C51.7536 139.704 52.0416 138.616 52.6176 137.688C53.2256 136.76 54.1056 136.008 55.2576 135.432C56.4416 134.856 57.8656 134.456 59.5296 134.232L68.3616 132.936V137.16L60.5376 138.312C59.5456 138.44 58.8256 138.68 58.3776 139.032C57.9296 139.352 57.7056 139.832 57.7056 140.472C57.7056 141.272 57.9936 141.848 58.5696 142.2C59.1776 142.52 60.1216 142.68 61.4016 142.68C62.3936 142.68 63.3856 142.536 64.3776 142.248C65.3696 141.96 66.2016 141.448 66.8736 140.712C67.5456 139.944 67.8816 138.84 67.8816 137.4L68.5536 143.544L67.7856 143.496C67.3376 144.168 66.7296 144.808 65.9616 145.416C65.2256 146.024 64.2976 146.52 63.1776 146.904C62.0896 147.288 60.8096 147.48 59.3376 147.48ZM81.6486 155.16C80.9446 155.16 80.2246 155.112 79.4886 155.016C78.7846 154.92 78.1926 154.808 77.7126 154.68V149.592H81.3606C82.3206 149.592 83.0246 149.464 83.4726 149.208C83.9526 148.984 84.4006 148.456 84.8166 147.624L86.0646 144.792L85.6326 146.616L75.3126 123.048H82.1286L86.4966 133.656L88.5126 138.456H88.9446L90.6726 133.656L94.5606 123.048H101.425L90.3366 149.256C89.6966 150.76 88.9766 151.944 88.1766 152.808C87.4086 153.672 86.4966 154.28 85.4406 154.632C84.3846 154.984 83.1206 155.16 81.6486 155.16Z" fill="#1A1A1A"/>
</svg>
