<svg width="168" height="168" viewBox="0 0 168 168" fill="none" xmlns="http://www.w3.org/2000/svg">
<rect width="168" height="168" rx="16" fill="#1A1A1A"/>
<path d="M23.52 62.48C21.408 62.48 19.616 62.032 18.144 61.136C16.672 60.24 15.536 58.912 14.736 57.152C13.968 55.392 13.584 53.232 13.584 50.672V39.824C13.584 37.488 13.856 35.488 14.4 33.824C14.976 32.128 15.792 30.752 16.848 29.696C17.936 28.608 19.248 27.808 20.784 27.296C22.32 26.784 24.064 26.528 26.016 26.528C28.48 26.528 30.592 26.96 32.352 27.824C34.144 28.688 35.52 30.032 36.48 31.856C37.44 33.68 37.904 36.064 37.872 39.008H30.144C30.112 37.568 29.936 36.416 29.616 35.552C29.296 34.688 28.832 34.064 28.224 33.68C27.616 33.264 26.816 33.056 25.824 33.056C24.896 33.056 24.096 33.248 23.424 33.632C22.784 33.984 22.304 34.528 21.984 35.264C21.664 36 21.504 36.928 21.504 38.048V51.008C21.504 51.904 21.6 52.672 21.792 53.312C22.016 53.952 22.304 54.48 22.656 54.896C23.04 55.28 23.488 55.568 24 55.76C24.544 55.92 25.12 56 25.728 56C26.784 56 27.632 55.808 28.272 55.424C28.912 55.008 29.36 54.432 29.616 53.696C29.904 52.96 30.048 52.096 30.048 51.104V47.216L31.584 49.136H25.68V43.376H37.968V62H32.16L31.632 57.2H31.344C31.088 58.32 30.592 59.28 29.856 60.08C29.152 60.88 28.256 61.488 27.168 61.904C26.112 62.288 24.896 62.48 23.52 62.48ZM40.5124 62L47.6644 27.008H58.7524L65.9044 62H58.0804L57.0724 55.856H49.2484L48.2884 62H40.5124ZM50.3524 50H56.0164L54.2404 40.352L53.3764 33.824H52.9444L52.0804 40.352L50.3524 50ZM68.727 62V27.008H80.439L84.375 48.896H83.895L87.735 27.008H99.351V62H92.295L92.247 38.768L92.343 35.36H92.103L91.575 38.72L87.207 62H80.823L76.455 38.672L75.975 35.36H75.687L75.783 38.768V62H68.727ZM104.024 62V27.008H122.936V33.488H111.848V41.072H121.112V47.312H111.848V55.52H123.176V62H104.024ZM14.352 102V67.008H25.248C27.808 67.008 29.92 67.424 31.584 68.256C33.248 69.056 34.48 70.272 35.28 71.904C36.112 73.504 36.528 75.504 36.528 77.904C36.528 80.56 36.096 82.72 35.232 84.384C34.4 86.016 33.168 87.216 31.536 87.984C29.936 88.72 28.032 89.088 25.824 89.088H21.456V83.232H25.056C25.984 83.232 26.704 83.088 27.216 82.8C27.76 82.48 28.144 82.032 28.368 81.456C28.592 80.88 28.704 80.208 28.704 79.44V77.04C28.704 76.144 28.56 75.44 28.272 74.928C28.016 74.384 27.616 74 27.072 73.776C26.528 73.52 25.856 73.392 25.056 73.392H22.176V102H14.352ZM40.0864 102V67.008H58.9984V73.488H47.9104V81.072H57.1744V87.312H47.9104V95.52H59.2384V102H40.0864ZM74.4356 102.48C71.7796 102.48 69.5396 102.016 67.7156 101.088C65.8916 100.16 64.4996 98.72 63.5396 96.768C62.5796 94.816 62.0996 92.32 62.0996 89.28V79.776C62.0996 77.44 62.3716 75.44 62.9156 73.776C63.4916 72.08 64.3076 70.704 65.3636 69.648C66.4516 68.592 67.7476 67.808 69.2516 67.296C70.7876 66.784 72.5156 66.528 74.4356 66.528C76.9956 66.528 79.1876 66.992 81.0116 67.92C82.8676 68.816 84.2756 70.24 85.2356 72.192C86.2276 74.112 86.7236 76.64 86.7236 79.776V89.28C86.7236 91.552 86.4516 93.536 85.9076 95.232C85.3956 96.896 84.6116 98.256 83.5556 99.312C82.4996 100.368 81.2036 101.168 79.6676 101.712C78.1636 102.224 76.4196 102.48 74.4356 102.48ZM74.4356 95.952C75.3316 95.952 76.0996 95.792 76.7396 95.472C77.4116 95.152 77.9236 94.624 78.2756 93.888C78.6276 93.152 78.8036 92.176 78.8036 90.96V78.048C78.8036 77.216 78.7076 76.496 78.5156 75.888C78.3236 75.248 78.0516 74.72 77.6996 74.304C77.3476 73.888 76.8836 73.584 76.3076 73.392C75.7636 73.168 75.1396 73.056 74.4356 73.056C73.4436 73.056 72.6116 73.248 71.9396 73.632C71.2996 73.984 70.8196 74.528 70.4996 75.264C70.1796 75.968 70.0196 76.896 70.0196 78.048V90.96C70.0196 91.888 70.1156 92.672 70.3076 93.312C70.5316 93.952 70.8356 94.464 71.2196 94.848C71.6036 95.232 72.0676 95.52 72.6116 95.712C73.1556 95.872 73.7636 95.952 74.4356 95.952ZM90.6645 102V67.008H101.561C104.121 67.008 106.233 67.424 107.897 68.256C109.561 69.056 110.793 70.272 111.593 71.904C112.425 73.504 112.841 75.504 112.841 77.904C112.841 80.56 112.409 82.72 111.545 84.384C110.713 86.016 109.481 87.216 107.849 87.984C106.249 88.72 104.345 89.088 102.137 89.088H97.7685V83.232H101.369C102.297 83.232 103.017 83.088 103.529 82.8C104.073 82.48 104.457 82.032 104.681 81.456C104.905 80.88 105.017 80.208 105.017 79.44V77.04C105.017 76.144 104.873 75.44 104.585 74.928C104.329 74.384 103.929 74 103.385 73.776C102.841 73.52 102.169 73.392 101.369 73.392H98.4885V102H90.6645ZM116.399 102V67.008H124.223V97.536L122.159 95.472H133.343V102H116.399ZM136.508 102V67.008H155.42V73.488H144.332V81.072H153.596V87.312H144.332V95.52H155.66V102H136.508ZM14.352 142V107.008H25.248C27.808 107.008 29.92 107.424 31.584 108.256C33.248 109.056 34.48 110.272 35.28 111.904C36.112 113.504 36.528 115.504 36.528 117.904C36.528 120.56 36.096 122.72 35.232 124.384C34.4 126.016 33.168 127.216 31.536 127.984C29.936 128.72 28.032 129.088 25.824 129.088H21.456V123.232H25.056C25.984 123.232 26.704 123.088 27.216 122.8C27.76 122.48 28.144 122.032 28.368 121.456C28.592 120.88 28.704 120.208 28.704 119.44V117.04C28.704 116.144 28.56 115.44 28.272 114.928C28.016 114.384 27.616 114 27.072 113.776C26.528 113.52 25.856 113.392 25.056 113.392H22.176V142H14.352ZM40.0864 142V107.008H47.9104V137.536L45.8464 135.472H57.0304V142H40.0864ZM58.7468 142L65.8988 107.008H76.9868L84.1388 142H76.3148L75.3068 135.856H67.4828L66.5228 142H58.7468ZM68.5868 130H74.2508L72.4748 120.352L71.6108 113.824H71.1788L70.3148 120.352L68.5868 130ZM91.1314 142V129.664L81.9154 107.008H90.0754L93.4354 116.56L94.8274 121.456H95.2594L96.6514 116.56L100.011 107.008H108.171L98.9554 129.664V142H91.1314Z" fill="white"/>
</svg>
