<svg width="192" height="192" viewBox="0 0 192 192" fill="none" xmlns="http://www.w3.org/2000/svg">
<rect width="192" height="192" rx="24" fill="white"/>
<path d="M94.6667 136C87.2464 136 80.9469 134.415 75.7681 131.246C70.6667 128 66.7633 123.401 64.058 117.449C61.3527 111.42 60 104.271 60 96C60 87.8841 61.5072 80.8502 64.5217 74.8985C67.5362 68.8696 71.7874 64.2319 77.2754 60.9855C82.8406 57.6618 89.4493 56 97.1015 56C104.522 56 110.783 57.1981 115.884 59.5942C121.063 61.913 125.005 65.2754 127.71 69.6812C130.415 74.087 131.768 79.343 131.768 85.4493V86.029H116V85.4493C116 79.9614 114.531 76.0966 111.594 73.8551C108.657 71.6135 103.787 70.4928 96.9855 70.4928C92.1159 70.4928 88.0966 71.2657 84.9275 72.8116C81.8358 74.3575 79.5556 76.9855 78.087 80.6957C76.6184 84.4058 75.8841 89.5072 75.8841 96C75.8841 102.493 76.657 107.594 78.2029 111.304C79.7488 115.014 82.1449 117.643 85.3913 119.188C88.715 120.734 93.0048 121.507 98.2609 121.507C102.667 121.507 106.261 121.159 109.043 120.464C111.903 119.691 114.029 118.3 115.42 116.29C116.889 114.203 117.623 111.343 117.623 107.71V103.188H132V105.043L119.478 122.783H117.623C116.85 124.87 115.498 126.957 113.565 129.043C111.633 131.053 109.121 132.715 106.029 134.029C102.937 135.343 99.1498 136 94.6667 136ZM132 134.841H118.203V114.551L117.623 113.159V96.3478H132V134.841ZM132 107.014H94.8986V94.1449H132V107.014Z" fill="#1A1A1A"/>
</svg>
