<svg width="24" height="24" viewBox="0 0 24 24" fill="none" xmlns="http://www.w3.org/2000/svg">
<path fill-rule="evenodd" clip-rule="evenodd" d="M10.731 4.09993C11.1437 4.03423 11.5675 4 12 4C12.4325 4 12.8563 4.03423 13.269 4.09994C13.3228 4.1085 13.3723 4.13538 13.4164 4.19185C13.4638 4.25257 13.5 4.34419 13.5 4.45259C13.5 5.49773 14.1507 6.3269 14.9233 6.75891C14.9743 6.78739 15.0248 6.8166 15.0748 6.84652C15.8354 7.30148 16.8796 7.45075 17.785 6.92799C17.8787 6.8739 17.9761 6.85943 18.0525 6.87011C18.1236 6.88005 18.1721 6.90958 18.2067 6.9521C18.7398 7.60664 19.171 8.34648 19.4768 9.14748C19.4963 9.19857 19.4977 9.25518 19.4707 9.32193C19.4416 9.39369 19.3801 9.47118 19.2858 9.52559C18.3811 10.0479 17.9868 11.0257 17.9994 11.9125C17.9998 11.9416 18 11.9708 18 12C18 12.0292 17.9998 12.0584 17.9994 12.0875C17.9868 12.9743 18.3811 13.9521 19.2858 14.4744C19.3801 14.5288 19.4416 14.6063 19.4707 14.6781C19.4977 14.7448 19.4963 14.8015 19.4768 14.8525C19.171 15.6535 18.7397 16.3934 18.2067 17.0479C18.1721 17.0905 18.1236 17.12 18.0525 17.1299C17.976 17.1406 17.8787 17.1261 17.785 17.072C16.8796 16.5493 15.8354 16.6986 15.0748 17.1535C15.0248 17.1834 14.9743 17.2127 14.9233 17.2411C14.1507 17.6732 13.5 18.5023 13.5 19.5474C13.5 19.6558 13.4638 19.7474 13.4164 19.8082C13.3723 19.8646 13.3228 19.8915 13.269 19.9001C12.8563 19.9658 12.4325 20 12 20C11.5675 20 11.1437 19.9658 10.731 19.9001C10.6772 19.8915 10.6278 19.8646 10.5837 19.8082C10.5363 19.7474 10.5 19.6558 10.5 19.5474C10.5 18.5023 9.84931 17.6732 9.07672 17.2412C9.02576 17.2127 8.97525 17.1834 8.92521 17.1535C8.16458 16.6985 7.12045 16.5493 6.21499 17.072C6.12131 17.1261 6.02396 17.1406 5.94753 17.1299C5.87637 17.12 5.82793 17.0904 5.79331 17.0479C5.26025 16.3934 4.82905 15.6536 4.52325 14.8526C4.50374 14.8015 4.50231 14.7448 4.52935 14.6781C4.55842 14.6063 4.61995 14.5288 4.71418 14.4744C5.61894 13.9521 6.01327 12.9743 6.00064 12.0875C6.00022 12.0584 6.00001 12.0292 6.00001 12C6.00001 11.9708 6.00022 11.9417 6.00064 11.9126C6.01327 11.0258 5.61893 10.048 4.71418 9.5256C4.61994 9.47119 4.55841 9.3937 4.52934 9.32194C4.5023 9.25518 4.50373 9.19857 4.52324 9.14747C4.82903 8.34648 5.26022 7.60664 5.79328 6.95211C5.82791 6.90959 5.87635 6.88006 5.94751 6.87011C6.02395 6.85944 6.1213 6.8739 6.21499 6.92799C7.12046 7.45076 8.1646 7.30149 8.92524 6.84652C8.97526 6.8166 9.02576 6.78739 9.0767 6.7589C9.8493 6.32689 10.5 5.49772 10.5 4.45258C10.5 4.34418 10.5363 4.25256 10.5837 4.19184C10.6278 4.13537 10.6773 4.10849 10.731 4.09993ZM12 2C11.4618 2 10.9329 2.04261 10.4166 2.12481C9.21379 2.31631 8.50003 3.38733 8.50003 4.45258C8.50003 4.62046 8.38675 4.85327 8.10061 5.01327C8.03265 5.05127 7.96531 5.09023 7.8986 5.13013C7.61803 5.29795 7.36024 5.2798 7.21499 5.19594C6.29269 4.66345 5.01023 4.74646 4.2425 5.68914C3.57702 6.50627 3.03768 7.43116 2.65477 8.43414C2.22035 9.57205 2.79184 10.7251 3.71418 11.2576C3.86057 11.3422 4.00549 11.5572 4.00084 11.8841C4.00029 11.9227 4.00001 11.9613 4.00001 12C4.00001 12.0387 4.00029 12.0774 4.00084 12.116C4.00549 12.4428 3.86057 12.6579 3.71418 12.7424C2.79185 13.2749 2.22036 14.428 2.65478 15.5659C3.0377 16.5689 3.57705 17.4938 4.24254 18.3109C5.01026 19.2536 6.2927 19.3366 7.21499 18.8041C7.36023 18.7202 7.61801 18.7021 7.89857 18.8699C7.96529 18.9098 8.03266 18.9488 8.10064 18.9868C8.38676 19.1468 8.50003 19.3796 8.50003 19.5474C8.50003 20.6127 9.21378 21.6837 10.4165 21.8752C10.9329 21.9574 11.4618 22 12 22C12.5382 22 13.0672 21.9574 13.5835 21.8752C14.7863 21.6837 15.5 20.6127 15.5 19.5474C15.5 19.3796 15.6133 19.1468 15.8994 18.9868C15.9674 18.9488 16.0347 18.9098 16.1014 18.8699C16.382 18.7021 16.6398 18.7202 16.785 18.8041C17.7073 19.3366 18.9897 19.2536 19.7574 18.3109C20.4229 17.4938 20.9623 16.5689 21.3452 15.5659C21.7796 14.428 21.2082 13.2749 20.2858 12.7424C20.1395 12.6579 19.9945 12.4428 19.9992 12.116C19.9997 12.0774 20 12.0387 20 12C20 11.9613 19.9997 11.9226 19.9992 11.884C19.9945 11.5572 20.1395 11.3421 20.2858 11.2576C21.2082 10.7251 21.7796 9.57206 21.3452 8.43415C20.9623 7.43117 20.423 6.50627 19.7575 5.68913C18.9898 4.74645 17.7073 4.66344 16.785 5.19594C16.6398 5.27979 16.382 5.29794 16.1014 5.13012C16.0347 5.09023 15.9674 5.05127 15.8994 5.01328C15.6133 4.85328 15.5 4.62047 15.5 4.45259C15.5 3.38734 14.7863 2.31633 13.5835 2.12482C13.0672 2.04261 12.5382 2 12 2ZM10 12C10 10.8954 10.8954 10 12 10C13.1046 10 14 10.8954 14 12C14 13.1046 13.1046 14 12 14C10.8954 14 10 13.1046 10 12ZM12 8C9.79086 8 8 9.79086 8 12C8 14.2091 9.79086 16 12 16C14.2091 16 16 14.2091 16 12C16 9.79086 14.2091 8 12 8Z" fill="currentColor"/>
</svg>
