<svg width="24" height="24" viewBox="0 0 24 24" fill="none" xmlns="http://www.w3.org/2000/svg">
<path fill-rule="evenodd" clip-rule="evenodd" d="M3 19V5C2.99995 4.82404 3.04632 4.65119 3.13444 4.49889C3.22256 4.3466 3.3493 4.22024 3.50188 4.1326C3.65445 4.04495 3.82744 3.99911 4.00339 3.99971C4.17935 4.00031 4.35203 4.04732 4.504 4.136L16.504 11.136C16.6551 11.224 16.7804 11.3501 16.8675 11.5017C16.9547 11.6534 17.0005 11.8251 17.0005 12C17.0005 12.1749 16.9547 12.3466 16.8675 12.4983C16.7804 12.6499 16.6551 12.776 16.504 12.864L4.504 19.864C4.35203 19.9527 4.17935 19.9997 4.00339 20.0003C3.82744 20.0009 3.65445 19.955 3.50188 19.8674C3.3493 19.7798 3.22256 19.6534 3.13444 19.5011C3.04632 19.3488 2.99995 19.176 3 19ZM20.6644 4.25272C20.4813 4.08996 20.2449 4.00003 20 4C19.7348 4 19.4804 4.10536 19.2929 4.29289C19.1054 4.48043 19 4.73478 19 5V19L19.007 19.117C19.0371 19.3701 19.1627 19.6021 19.3582 19.7657C19.5536 19.9293 19.8042 20.0121 20.0586 19.9972C20.313 19.9822 20.5522 19.8707 20.7272 19.6854C20.9021 19.5 20.9997 19.2549 21 19V5L20.993 4.883C20.9643 4.63975 20.8474 4.41547 20.6644 4.25272Z" fill="currentColor"/>
</svg>
