<svg width="24" height="24" viewBox="0 0 24 24" fill="none" xmlns="http://www.w3.org/2000/svg">
<path fill-rule="evenodd" clip-rule="evenodd" d="M7.49599 11.136L19.496 4.136C19.648 4.04732 19.8206 4.00031 19.9966 3.99971C20.1725 3.99911 20.3455 4.04495 20.4981 4.1326C20.6507 4.22024 20.7774 4.3466 20.8655 4.49889C20.9537 4.65119 21 4.82404 21 5V19C21 19.176 20.9537 19.3488 20.8655 19.5011C20.7774 19.6534 20.6507 19.7798 20.4981 19.8674C20.3455 19.955 20.1725 20.0009 19.9966 20.0003C19.8206 19.9997 19.648 19.9527 19.496 19.864L7.49599 12.864C7.34492 12.776 7.21957 12.6499 7.13245 12.4983C7.04533 12.3466 6.99948 12.1749 6.99948 12C6.99948 11.8251 7.04533 11.6534 7.13245 11.5017C7.21957 11.3501 7.34492 11.224 7.49599 11.136ZM4.66437 4.25272C4.48134 4.08996 4.24493 4.00003 4 4C3.73478 4 3.48043 4.10536 3.29289 4.29289C3.10536 4.48043 3 4.73478 3 5V19L3.007 19.117C3.0371 19.3701 3.16271 19.6021 3.35817 19.7657C3.55362 19.9293 3.80416 20.0121 4.05861 19.9972C4.31305 19.9822 4.55218 19.8707 4.72715 19.6854C4.90212 19.5 4.99972 19.2549 5 19V5L4.993 4.883C4.96434 4.63975 4.84741 4.41547 4.66437 4.25272Z" fill="currentColor"/>
</svg>
