<svg width="24" height="24" viewBox="0 0 24 24" fill="none" xmlns="http://www.w3.org/2000/svg">
<path fill-rule="evenodd" clip-rule="evenodd" d="M1.341 11.247L9.341 4.247C9.988 3.682 11 4.14 11 5V19C11 19.859 9.988 20.318 9.341 19.753L1.341 12.753C1.23359 12.6591 1.14751 12.5434 1.08852 12.4135C1.02954 12.2836 0.999023 12.1426 0.999023 12C0.999023 11.8574 1.02954 11.7164 1.08852 11.5865C1.14751 11.4566 1.23359 11.3409 1.341 11.247ZM12.341 11.247L20.341 4.247C20.988 3.682 22 4.14 22 5V19C22 19.859 20.988 20.318 20.341 19.753L12.341 12.753C12.2336 12.6591 12.1475 12.5434 12.0885 12.4135C12.0295 12.2836 11.999 12.1426 11.999 12C11.999 11.8574 12.0295 11.7164 12.0885 11.5865C12.1475 11.4566 12.2336 11.3409 12.341 11.247Z" fill="currentColor"/>
</svg>
