<svg width="24" height="24" viewBox="0 0 24 24" fill="none" xmlns="http://www.w3.org/2000/svg">
<path fill-rule="evenodd" clip-rule="evenodd" d="M2 19V5C2 4.141 3.012 3.682 3.659 4.247L11.659 11.247C11.7664 11.3409 11.8525 11.4566 11.9115 11.5865C11.9705 11.7164 12.001 11.8574 12.001 12C12.001 12.1426 11.9705 12.2836 11.9115 12.4135C11.8525 12.5434 11.7664 12.6591 11.659 12.753L3.659 19.753C3.012 20.318 2 19.86 2 19ZM14.659 19.753C14.012 20.318 13 19.86 13 19V5C13 4.141 14.012 3.682 14.659 4.247L22.659 11.247C22.7664 11.3409 22.8525 11.4566 22.9115 11.5865C22.9705 11.7164 23.001 11.8574 23.001 12C23.001 12.1426 22.9705 12.2836 22.9115 12.4135C22.8525 12.5434 22.7664 12.6591 22.659 12.753L14.659 19.753Z" fill="currentColor"/>
</svg>
